<svg width="8" height="835" viewBox="0 0 8 835" fill="none" xmlns="http://www.w3.org/2000/svg">
        <g opacity="0.2">
        <rect y="-2.5" width="3" height="3" fill="#FFC672"/>
        <rect x="4" y="-2.5" width="4" height="3" fill="#FFC672"/>
        </g>
        <g opacity="0.2">
        <rect y="2.5" width="4" height="3" fill="#FFC672"/>
        <rect x="5" y="2.5" width="3" height="3" fill="#FFC672"/>
        </g>
        <g opacity="0.2">
        <rect y="7.5" width="3" height="3" fill="#FFC672"/>
        <rect x="4" y="7.5" width="4" height="3" fill="#FFC672"/>
        </g>
        <g opacity="0.2">
        <rect y="12.5" width="3" height="3" fill="#FFC672"/>
        <rect x="4" y="12.5" width="4" height="3" fill="#FFC672"/>
        </g>
        <g opacity="0.2">
        <rect y="17.5" width="5" height="3" fill="#FFC672"/>
        <rect x="6" y="17.5" width="2" height="3" fill="#FFC672"/>
        </g>
        <g opacity="0.2">
        <rect y="22.5" width="6" height="3" fill="#FFC672"/>
        <rect x="7" y="22.5" width="1" height="3" fill="#FFC672"/>
        </g>
        <g opacity="0.2">
        <rect y="27.5" width="3" height="3" fill="#FFC672"/>
        <rect x="4" y="27.5" width="4" height="3" fill="#FFC672"/>
        </g>
        <g opacity="0.2">
        <rect y="32.5" width="4" height="3" fill="#FFC672"/>
        <rect x="5" y="32.5" width="3" height="3" fill="#FFC672"/>
        </g>
        <g opacity="0.2">
        <rect y="37.5" width="3" height="3" fill="#FFC672"/>
        <rect x="4" y="37.5" width="4" height="3" fill="#FFC672"/>
        </g>
        <g opacity="0.2">
        <rect y="42.5" width="3" height="3" fill="#FFC672"/>
        <rect x="4" y="42.5" width="4" height="3" fill="#FFC672"/>
        </g>
        <g opacity="0.2">
        <rect y="47.5" width="5" height="3" fill="#FFC672"/>
        <rect x="6" y="47.5" width="2" height="3" fill="#FFC672"/>
        </g>
        <g opacity="0.2">
        <rect y="52.5" width="6" height="3" fill="#FFC672"/>
        <rect x="7" y="52.5" width="1" height="3" fill="#FFC672"/>
        </g>
        <g opacity="0.2">
        <rect y="57.5" width="3" height="3" fill="#FFC672"/>
        <rect x="4" y="57.5" width="4" height="3" fill="#FFC672"/>
        </g>
        <g opacity="0.2">
        <rect y="62.5" width="4" height="3" fill="#FFC672"/>
        <rect x="5" y="62.5" width="3" height="3" fill="#FFC672"/>
        </g>
        <g opacity="0.2">
        <rect y="67.5" width="3" height="3" fill="#FFC672"/>
        <rect x="4" y="67.5" width="4" height="3" fill="#FFC672"/>
        </g>
        <g opacity="0.2">
        <rect y="72.5" width="3" height="3" fill="#FFC672"/>
        <rect x="4" y="72.5" width="4" height="3" fill="#FFC672"/>
        </g>
        <g opacity="0.2">
        <rect y="77.5" width="5" height="3" fill="#FFC672"/>
        <rect x="6" y="77.5" width="2" height="3" fill="#FFC672"/>
        </g>
        <g opacity="0.2">
        <rect y="82.5" width="6" height="3" fill="#FFC672"/>
        <rect x="7" y="82.5" width="1" height="3" fill="#FFC672"/>
        </g>
        <rect y="87.5" width="3" height="3" fill="#FFC672"/>
        <rect x="4" y="87.5" width="4" height="3" fill="#FFC672"/>
        <g opacity="0.2">
        <rect y="92.5" width="4" height="3" fill="#FFC672"/>
        <rect x="5" y="92.5" width="3" height="3" fill="#FFC672"/>
        </g>
        <g opacity="0.2">
        <rect y="97.5" width="3" height="3" fill="#FFC672"/>
        <rect x="4" y="97.5" width="4" height="3" fill="#FFC672"/>
        </g>
        <g opacity="0.2">
        <rect y="102.5" width="3" height="3" fill="#FFC672"/>
        <rect x="4" y="102.5" width="4" height="3" fill="#FFC672"/>
        </g>
        <g opacity="0.2">
        <rect y="107.5" width="5" height="3" fill="#FFC672"/>
        <rect x="6" y="107.5" width="2" height="3" fill="#FFC672"/>
        </g>
        <g opacity="0.2">
        <rect y="112.5" width="6" height="3" fill="#FFC672"/>
        <rect x="7" y="112.5" width="1" height="3" fill="#FFC672"/>
        </g>
        <g opacity="0.2">
        <rect y="117.5" width="3" height="3" fill="#FFC672"/>
        <rect x="4" y="117.5" width="4" height="3" fill="#FFC672"/>
        </g>
        <g opacity="0.2">
        <rect y="122.5" width="4" height="3" fill="#FFC672"/>
        <rect x="5" y="122.5" width="3" height="3" fill="#FFC672"/>
        </g>
        <g opacity="0.2">
        <rect y="127.5" width="3" height="3" fill="#FFC672"/>
        <rect x="4" y="127.5" width="4" height="3" fill="#FFC672"/>
        </g>
        <g opacity="0.2">
        <rect y="132.5" width="3" height="3" fill="#FFC672"/>
        <rect x="4" y="132.5" width="4" height="3" fill="#FFC672"/>
        </g>
        <g opacity="0.2">
        <rect y="137.5" width="5" height="3" fill="#FFC672"/>
        <rect x="6" y="137.5" width="2" height="3" fill="#FFC672"/>
        </g>
        <g opacity="0.2">
        <rect y="142.5" width="6" height="3" fill="#FFC672"/>
        <rect x="7" y="142.5" width="1" height="3" fill="#FFC672"/>
        </g>
        <g opacity="0.2">
        <rect y="147.5" width="3" height="3" fill="#FFC672"/>
        <rect x="4" y="147.5" width="4" height="3" fill="#FFC672"/>
        </g>
        <g opacity="0.2">
        <rect y="152.5" width="4" height="3" fill="#FFC672"/>
        <rect x="5" y="152.5" width="3" height="3" fill="#FFC672"/>
        </g>
        <g opacity="0.2">
        <rect y="157.5" width="3" height="3" fill="#FFC672"/>
        <rect x="4" y="157.5" width="4" height="3" fill="#FFC672"/>
        </g>
        <g opacity="0.2">
        <rect y="162.5" width="3" height="3" fill="#FFC672"/>
        <rect x="4" y="162.5" width="4" height="3" fill="#FFC672"/>
        </g>
        <g opacity="0.2">
        <rect y="167.5" width="5" height="3" fill="#FFC672"/>
        <rect x="6" y="167.5" width="2" height="3" fill="#FFC672"/>
        </g>
        <g opacity="0.2">
        <rect y="172.5" width="6" height="3" fill="#FFC672"/>
        <rect x="7" y="172.5" width="1" height="3" fill="#FFC672"/>
        </g>
        <g opacity="0.2">
        <rect y="177.5" width="3" height="3" fill="#FFC672"/>
        <rect x="4" y="177.5" width="4" height="3" fill="#FFC672"/>
        </g>
        <g opacity="0.2">
        <rect y="182.5" width="4" height="3" fill="#FFC672"/>
        <rect x="5" y="182.5" width="3" height="3" fill="#FFC672"/>
        </g>
        <g opacity="0.2">
        <rect y="187.5" width="3" height="3" fill="#FFC672"/>
        <rect x="4" y="187.5" width="4" height="3" fill="#FFC672"/>
        </g>
        <g opacity="0.2">
        <rect y="192.5" width="3" height="3" fill="#FFC672"/>
        <rect x="4" y="192.5" width="4" height="3" fill="#FFC672"/>
        </g>
        <g opacity="0.2">
        <rect y="197.5" width="5" height="3" fill="#FFC672"/>
        <rect x="6" y="197.5" width="2" height="3" fill="#FFC672"/>
        </g>
        <g opacity="0.2">
        <rect y="202.5" width="6" height="3" fill="#FFC672"/>
        <rect x="7" y="202.5" width="1" height="3" fill="#FFC672"/>
        </g>
        <g opacity="0.2">
        <rect y="207.5" width="3" height="3" fill="#FFC672"/>
        <rect x="4" y="207.5" width="4" height="3" fill="#FFC672"/>
        </g>
        <g opacity="0.2">
        <rect y="212.5" width="4" height="3" fill="#FFC672"/>
        <rect x="5" y="212.5" width="3" height="3" fill="#FFC672"/>
        </g>
        <g opacity="0.2">
        <rect y="217.5" width="3" height="3" fill="#FFC672"/>
        <rect x="4" y="217.5" width="4" height="3" fill="#FFC672"/>
        </g>
        <g opacity="0.2">
        <rect y="222.5" width="3" height="3" fill="#FFC672"/>
        <rect x="4" y="222.5" width="4" height="3" fill="#FFC672"/>
        </g>
        <g opacity="0.2">
        <rect y="227.5" width="5" height="3" fill="#FFC672"/>
        <rect x="6" y="227.5" width="2" height="3" fill="#FFC672"/>
        </g>
        <g opacity="0.2">
        <rect y="232.5" width="6" height="3" fill="#FFC672"/>
        <rect x="7" y="232.5" width="1" height="3" fill="#FFC672"/>
        </g>
        <g opacity="0.2">
        <rect y="237.5" width="3" height="3" fill="#FFC672"/>
        <rect x="4" y="237.5" width="4" height="3" fill="#FFC672"/>
        </g>
        <g opacity="0.2">
        <rect y="242.5" width="4" height="3" fill="#FFC672"/>
        <rect x="5" y="242.5" width="3" height="3" fill="#FFC672"/>
        </g>
        <g opacity="0.2">
        <rect y="247.5" width="3" height="3" fill="#FFC672"/>
        <rect x="4" y="247.5" width="4" height="3" fill="#FFC672"/>
        </g>
        <g opacity="0.2">
        <rect y="252.5" width="3" height="3" fill="#FFC672"/>
        <rect x="4" y="252.5" width="4" height="3" fill="#FFC672"/>
        </g>
        <g opacity="0.2">
        <rect y="257.5" width="5" height="3" fill="#FFC672"/>
        <rect x="6" y="257.5" width="2" height="3" fill="#FFC672"/>
        </g>
        <g opacity="0.2">
        <rect y="262.5" width="6" height="3" fill="#FFC672"/>
        <rect x="7" y="262.5" width="1" height="3" fill="#FFC672"/>
        </g>
        <g opacity="0.2">
        <rect y="267.5" width="3" height="3" fill="#FFC672"/>
        <rect x="4" y="267.5" width="4" height="3" fill="#FFC672"/>
        </g>
        <g opacity="0.2">
        <rect y="272.5" width="4" height="3" fill="#FFC672"/>
        <rect x="5" y="272.5" width="3" height="3" fill="#FFC672"/>
        </g>
        <g opacity="0.2">
        <rect y="277.5" width="3" height="3" fill="#FFC672"/>
        <rect x="4" y="277.5" width="4" height="3" fill="#FFC672"/>
        </g>
        <g opacity="0.2">
        <rect y="282.5" width="3" height="3" fill="#FFC672"/>
        <rect x="4" y="282.5" width="4" height="3" fill="#FFC672"/>
        </g>
        <g opacity="0.2">
        <rect y="287.5" width="5" height="3" fill="#FFC672"/>
        <rect x="6" y="287.5" width="2" height="3" fill="#FFC672"/>
        </g>
        <g opacity="0.2">
        <rect y="292.5" width="6" height="3" fill="#FFC672"/>
        <rect x="7" y="292.5" width="1" height="3" fill="#FFC672"/>
        </g>
        <g opacity="0.2">
        <rect y="297.5" width="3" height="3" fill="#FFC672"/>
        <rect x="4" y="297.5" width="4" height="3" fill="#FFC672"/>
        </g>
        <g opacity="0.2">
        <rect y="302.5" width="4" height="3" fill="#FFC672"/>
        <rect x="5" y="302.5" width="3" height="3" fill="#FFC672"/>
        </g>
        <g opacity="0.2">
        <rect y="307.5" width="3" height="3" fill="#FFC672"/>
        <rect x="4" y="307.5" width="4" height="3" fill="#FFC672"/>
        </g>
        <g opacity="0.2">
        <rect y="312.5" width="3" height="3" fill="#FFC672"/>
        <rect x="4" y="312.5" width="4" height="3" fill="#FFC672"/>
        </g>
        <g opacity="0.2">
        <rect y="317.5" width="5" height="3" fill="#FFC672"/>
        <rect x="6" y="317.5" width="2" height="3" fill="#FFC672"/>
        </g>
        <g opacity="0.2">
        <rect y="322.5" width="6" height="3" fill="#FFC672"/>
        <rect x="7" y="322.5" width="1" height="3" fill="#FFC672"/>
        </g>
        <g opacity="0.2">
        <rect y="327.5" width="3" height="3" fill="#FFC672"/>
        <rect x="4" y="327.5" width="4" height="3" fill="#FFC672"/>
        </g>
        <g opacity="0.2">
        <rect y="332.5" width="4" height="3" fill="#FFC672"/>
        <rect x="5" y="332.5" width="3" height="3" fill="#FFC672"/>
        </g>
        <g opacity="0.2">
        <rect y="337.5" width="3" height="3" fill="#FFC672"/>
        <rect x="4" y="337.5" width="4" height="3" fill="#FFC672"/>
        </g>
        <g opacity="0.2">
        <rect y="342.5" width="3" height="3" fill="#FFC672"/>
        <rect x="4" y="342.5" width="4" height="3" fill="#FFC672"/>
        </g>
        <g opacity="0.2">
        <rect y="347.5" width="5" height="3" fill="#FFC672"/>
        <rect x="6" y="347.5" width="2" height="3" fill="#FFC672"/>
        </g>
        <g opacity="0.2">
        <rect y="352.5" width="6" height="3" fill="#FFC672"/>
        <rect x="7" y="352.5" width="1" height="3" fill="#FFC672"/>
        </g>
        <rect y="357.5" width="3" height="3" fill="#FFC672"/>
        <rect x="4" y="357.5" width="4" height="3" fill="#FFC672"/>
        <g opacity="0.2">
        <rect y="362.5" width="4" height="3" fill="#FFC672"/>
        <rect x="5" y="362.5" width="3" height="3" fill="#FFC672"/>
        </g>
        <g opacity="0.2">
        <rect y="367.5" width="3" height="3" fill="#FFC672"/>
        <rect x="4" y="367.5" width="4" height="3" fill="#FFC672"/>
        </g>
        <g opacity="0.2">
        <rect y="372.5" width="3" height="3" fill="#FFC672"/>
        <rect x="4" y="372.5" width="4" height="3" fill="#FFC672"/>
        </g>
        <g opacity="0.2">
        <rect y="377.5" width="5" height="3" fill="#FFC672"/>
        <rect x="6" y="377.5" width="2" height="3" fill="#FFC672"/>
        </g>
        <g opacity="0.2">
        <rect y="382.5" width="6" height="3" fill="#FFC672"/>
        <rect x="7" y="382.5" width="1" height="3" fill="#FFC672"/>
        </g>
        <g opacity="0.2">
        <rect y="387.5" width="3" height="3" fill="#FFC672"/>
        <rect x="4" y="387.5" width="4" height="3" fill="#FFC672"/>
        </g>
        <g opacity="0.2">
        <rect y="392.5" width="4" height="3" fill="#FFC672"/>
        <rect x="5" y="392.5" width="3" height="3" fill="#FFC672"/>
        </g>
        <g opacity="0.2">
        <rect y="397.5" width="3" height="3" fill="#FFC672"/>
        <rect x="4" y="397.5" width="4" height="3" fill="#FFC672"/>
        </g>
        <g opacity="0.2">
        <rect y="402.5" width="3" height="3" fill="#FFC672"/>
        <rect x="4" y="402.5" width="4" height="3" fill="#FFC672"/>
        </g>
        <g opacity="0.2">
        <rect y="407.5" width="5" height="3" fill="#FFC672"/>
        <rect x="6" y="407.5" width="2" height="3" fill="#FFC672"/>
        </g>
        <g opacity="0.2">
        <rect y="412.5" width="6" height="3" fill="#FFC672"/>
        <rect x="7" y="412.5" width="1" height="3" fill="#FFC672"/>
        </g>
        <g opacity="0.2">
        <rect y="417.5" width="3" height="3" fill="#FFC672"/>
        <rect x="4" y="417.5" width="4" height="3" fill="#FFC672"/>
        </g>
        <g opacity="0.2">
        <rect y="422.5" width="4" height="3" fill="#FFC672"/>
        <rect x="5" y="422.5" width="3" height="3" fill="#FFC672"/>
        </g>
        <g opacity="0.2">
        <rect y="427.5" width="3" height="3" fill="#FFC672"/>
        <rect x="4" y="427.5" width="4" height="3" fill="#FFC672"/>
        </g>
        <g opacity="0.2">
        <rect y="432.5" width="3" height="3" fill="#FFC672"/>
        <rect x="4" y="432.5" width="4" height="3" fill="#FFC672"/>
        </g>
        <g opacity="0.2">
        <rect y="437.5" width="5" height="3" fill="#FFC672"/>
        <rect x="6" y="437.5" width="2" height="3" fill="#FFC672"/>
        </g>
        <g opacity="0.2">
        <rect y="442.5" width="6" height="3" fill="#FFC672"/>
        <rect x="7" y="442.5" width="1" height="3" fill="#FFC672"/>
        </g>
        <g opacity="0.2">
        <rect y="447.5" width="3" height="3" fill="#FFC672"/>
        <rect x="4" y="447.5" width="4" height="3" fill="#FFC672"/>
        </g>
        <g opacity="0.2">
        <rect y="452.5" width="4" height="3" fill="#FFC672"/>
        <rect x="5" y="452.5" width="3" height="3" fill="#FFC672"/>
        </g>
        <g opacity="0.2">
        <rect y="457.5" width="3" height="3" fill="#FFC672"/>
        <rect x="4" y="457.5" width="4" height="3" fill="#FFC672"/>
        </g>
        <g opacity="0.2">
        <rect y="462.5" width="3" height="3" fill="#FFC672"/>
        <rect x="4" y="462.5" width="4" height="3" fill="#FFC672"/>
        </g>
        <g opacity="0.2">
        <rect y="467.5" width="5" height="3" fill="#FFC672"/>
        <rect x="6" y="467.5" width="2" height="3" fill="#FFC672"/>
        </g>
        <g opacity="0.2">
        <rect y="472.5" width="6" height="3" fill="#FFC672"/>
        <rect x="7" y="472.5" width="1" height="3" fill="#FFC672"/>
        </g>
        <g opacity="0.2">
        <rect y="477.5" width="3" height="3" fill="#FFC672"/>
        <rect x="4" y="477.5" width="4" height="3" fill="#FFC672"/>
        </g>
        <g opacity="0.2">
        <rect y="482.5" width="4" height="3" fill="#FFC672"/>
        <rect x="5" y="482.5" width="3" height="3" fill="#FFC672"/>
        </g>
        <rect y="487.5" width="3" height="3" fill="#FFC672"/>
        <rect x="4" y="487.5" width="4" height="3" fill="#FFC672"/>
        <g opacity="0.2">
        <rect y="492.5" width="3" height="3" fill="#FFC672"/>
        <rect x="4" y="492.5" width="4" height="3" fill="#FFC672"/>
        </g>
        <g opacity="0.2">
        <rect y="497.5" width="5" height="3" fill="#FFC672"/>
        <rect x="6" y="497.5" width="2" height="3" fill="#FFC672"/>
        </g>
        <g opacity="0.2">
        <rect y="502.5" width="6" height="3" fill="#FFC672"/>
        <rect x="7" y="502.5" width="1" height="3" fill="#FFC672"/>
        </g>
        <g opacity="0.2">
        <rect y="507.5" width="3" height="3" fill="#FFC672"/>
        <rect x="4" y="507.5" width="4" height="3" fill="#FFC672"/>
        </g>
        <g opacity="0.2">
        <rect y="512.5" width="4" height="3" fill="#FFC672"/>
        <rect x="5" y="512.5" width="3" height="3" fill="#FFC672"/>
        </g>
        <g opacity="0.2">
        <rect y="517.5" width="3" height="3" fill="#FFC672"/>
        <rect x="4" y="517.5" width="4" height="3" fill="#FFC672"/>
        </g>
        <g opacity="0.2">
        <rect y="522.5" width="3" height="3" fill="#FFC672"/>
        <rect x="4" y="522.5" width="4" height="3" fill="#FFC672"/>
        </g>
        <g opacity="0.2">
        <rect y="527.5" width="5" height="3" fill="#FFC672"/>
        <rect x="6" y="527.5" width="2" height="3" fill="#FFC672"/>
        </g>
        <g opacity="0.2">
        <rect y="532.5" width="6" height="3" fill="#FFC672"/>
        <rect x="7" y="532.5" width="1" height="3" fill="#FFC672"/>
        </g>
        <g opacity="0.2">
        <rect y="537.5" width="3" height="3" fill="#FFC672"/>
        <rect x="4" y="537.5" width="4" height="3" fill="#FFC672"/>
        </g>
        <g opacity="0.2">
        <rect y="542.5" width="4" height="3" fill="#FFC672"/>
        <rect x="5" y="542.5" width="3" height="3" fill="#FFC672"/>
        </g>
        <g opacity="0.2">
        <rect y="547.5" width="3" height="3" fill="#FFC672"/>
        <rect x="4" y="547.5" width="4" height="3" fill="#FFC672"/>
        </g>
        <g opacity="0.2">
        <rect y="552.5" width="3" height="3" fill="#FFC672"/>
        <rect x="4" y="552.5" width="4" height="3" fill="#FFC672"/>
        </g>
        <g opacity="0.2">
        <rect y="557.5" width="5" height="3" fill="#FFC672"/>
        <rect x="6" y="557.5" width="2" height="3" fill="#FFC672"/>
        </g>
        <g opacity="0.2">
        <rect y="562.5" width="6" height="3" fill="#FFC672"/>
        <rect x="7" y="562.5" width="1" height="3" fill="#FFC672"/>
        </g>
        <g opacity="0.2">
        <rect y="567.5" width="3" height="3" fill="#FFC672"/>
        <rect x="4" y="567.5" width="4" height="3" fill="#FFC672"/>
        </g>
        <g opacity="0.2">
        <rect y="572.5" width="4" height="3" fill="#FFC672"/>
        <rect x="5" y="572.5" width="3" height="3" fill="#FFC672"/>
        </g>
        <g opacity="0.2">
        <rect y="577.5" width="3" height="3" fill="#FFC672"/>
        <rect x="4" y="577.5" width="4" height="3" fill="#FFC672"/>
        </g>
        <g opacity="0.2">
        <rect y="582.5" width="3" height="3" fill="#FFC672"/>
        <rect x="4" y="582.5" width="4" height="3" fill="#FFC672"/>
        </g>
        <g opacity="0.2">
        <rect y="587.5" width="5" height="3" fill="#FFC672"/>
        <rect x="6" y="587.5" width="2" height="3" fill="#FFC672"/>
        </g>
        <g opacity="0.2">
        <rect y="592.5" width="6" height="3" fill="#FFC672"/>
        <rect x="7" y="592.5" width="1" height="3" fill="#FFC672"/>
        </g>
        <g opacity="0.2">
        <rect y="597.5" width="3" height="3" fill="#FFC672"/>
        <rect x="4" y="597.5" width="4" height="3" fill="#FFC672"/>
        </g>
        <g opacity="0.2">
        <rect y="602.5" width="4" height="3" fill="#FFC672"/>
        <rect x="5" y="602.5" width="3" height="3" fill="#FFC672"/>
        </g>
        <g opacity="0.2">
        <rect y="607.5" width="3" height="3" fill="#FFC672"/>
        <rect x="4" y="607.5" width="4" height="3" fill="#FFC672"/>
        </g>
        <g opacity="0.2">
        <rect y="612.5" width="3" height="3" fill="#FFC672"/>
        <rect x="4" y="612.5" width="4" height="3" fill="#FFC672"/>
        </g>
        <g opacity="0.2">
        <rect y="617.5" width="5" height="3" fill="#FFC672"/>
        <rect x="6" y="617.5" width="2" height="3" fill="#FFC672"/>
        </g>
        <g opacity="0.2">
        <rect y="622.5" width="6" height="3" fill="#FFC672"/>
        <rect x="7" y="622.5" width="1" height="3" fill="#FFC672"/>
        </g>
        <g opacity="0.2">
        <rect y="627.5" width="3" height="3" fill="#FFC672"/>
        <rect x="4" y="627.5" width="4" height="3" fill="#FFC672"/>
        </g>
        <g opacity="0.2">
        <rect y="632.5" width="4" height="3" fill="#FFC672"/>
        <rect x="5" y="632.5" width="3" height="3" fill="#FFC672"/>
        </g>
        <g opacity="0.2">
        <rect y="637.5" width="3" height="3" fill="#FFC672"/>
        <rect x="4" y="637.5" width="4" height="3" fill="#FFC672"/>
        </g>
        <g opacity="0.2">
        <rect y="642.5" width="3" height="3" fill="#FFC672"/>
        <rect x="4" y="642.5" width="4" height="3" fill="#FFC672"/>
        </g>
        <g opacity="0.2">
        <rect y="647.5" width="5" height="3" fill="#FFC672"/>
        <rect x="6" y="647.5" width="2" height="3" fill="#FFC672"/>
        </g>
        <g opacity="0.2">
        <rect y="652.5" width="6" height="3" fill="#FFC672"/>
        <rect x="7" y="652.5" width="1" height="3" fill="#FFC672"/>
        </g>
        <g opacity="0.2">
        <rect y="657.5" width="3" height="3" fill="#FFC672"/>
        <rect x="4" y="657.5" width="4" height="3" fill="#FFC672"/>
        </g>
        <g opacity="0.2">
        <rect y="662.5" width="4" height="3" fill="#FFC672"/>
        <rect x="5" y="662.5" width="3" height="3" fill="#FFC672"/>
        </g>
        <g opacity="0.2">
        <rect y="667.5" width="3" height="3" fill="#FFC672"/>
        <rect x="4" y="667.5" width="4" height="3" fill="#FFC672"/>
        </g>
        <g opacity="0.2">
        <rect y="672.5" width="3" height="3" fill="#FFC672"/>
        <rect x="4" y="672.5" width="4" height="3" fill="#FFC672"/>
        </g>
        <g opacity="0.2">
        <rect y="677.5" width="5" height="3" fill="#FFC672"/>
        <rect x="6" y="677.5" width="2" height="3" fill="#FFC672"/>
        </g>
        <g opacity="0.2">
        <rect y="682.5" width="6" height="3" fill="#FFC672"/>
        <rect x="7" y="682.5" width="1" height="3" fill="#FFC672"/>
        </g>
        <g opacity="0.2">
        <rect y="687.5" width="3" height="3" fill="#FFC672"/>
        <rect x="4" y="687.5" width="4" height="3" fill="#FFC672"/>
        </g>
        <g opacity="0.2">
        <rect y="692.5" width="4" height="3" fill="#FFC672"/>
        <rect x="5" y="692.5" width="3" height="3" fill="#FFC672"/>
        </g>
        <g opacity="0.2">
        <rect y="697.5" width="3" height="3" fill="#FFC672"/>
        <rect x="4" y="697.5" width="4" height="3" fill="#FFC672"/>
        </g>
        <g opacity="0.2">
        <rect y="702.5" width="3" height="3" fill="#FFC672"/>
        <rect x="4" y="702.5" width="4" height="3" fill="#FFC672"/>
        </g>
        <g opacity="0.2">
        <rect y="707.5" width="5" height="3" fill="#FFC672"/>
        <rect x="6" y="707.5" width="2" height="3" fill="#FFC672"/>
        </g>
        <g opacity="0.2">
        <rect y="712.5" width="6" height="3" fill="#FFC672"/>
        <rect x="7" y="712.5" width="1" height="3" fill="#FFC672"/>
        </g>
        <g opacity="0.2">
        <rect y="717.5" width="3" height="3" fill="#FFC672"/>
        <rect x="4" y="717.5" width="4" height="3" fill="#FFC672"/>
        </g>
        <g opacity="0.2">
        <rect y="722.5" width="4" height="3" fill="#FFC672"/>
        <rect x="5" y="722.5" width="3" height="3" fill="#FFC672"/>
        </g>
        <g opacity="0.2">
        <rect y="727.5" width="3" height="3" fill="#FFC672"/>
        <rect x="4" y="727.5" width="4" height="3" fill="#FFC672"/>
        </g>
        </svg>