<svg xmlns="http://www.w3.org/2000/svg" width="80" height="80" viewBox="0 0 80 80" fill="none">
  <g clip-path="url(#clip0_3401_5458)">
    <path d="M0.0332336 19.2317C0.0332336 8.6282 8.62841 0.03302 19.2319 0.03302H60.7647C71.3716 0.03302 79.9667 8.6282 79.9667 19.2317V79.9998H19.2319C8.62841 79.9998 0.0332336 71.4046 0.0332336 60.8011V19.2317Z" fill="#74AA9C"/>
    <path d="M36.8179 9.94505C30.2344 9.94505 24.3857 14.1778 22.3475 20.4288L21.6126 24.7214V38.9492C21.6126 39.6608 21.9784 40.2925 22.5902 40.6583L34.0449 47.2589V27.7073H34.0482V26.7796L45.6425 20.083C46.7636 19.434 47.9847 18.9905 49.2492 18.7587L48.133 14.9725C45.2535 11.7539 41.1338 9.9251 36.8179 9.94505ZM36.8179 13.8519L36.798 13.8719C39.448 13.8719 41.995 14.7863 44.0332 16.4787C43.9501 16.5186 43.7872 16.6217 43.6675 16.6815L31.6808 23.5843C31.069 23.9301 30.7032 24.5818 30.7032 25.2933V41.4962L25.5461 38.5236V25.1304C25.5428 18.9093 30.5869 13.8619 36.8179 13.8519Z" fill="white"/>
    <path d="M64.4372 22.2166C61.1455 16.5151 54.5554 13.5663 48.1227 14.9267L44.0378 16.4366L31.7162 23.5505C31.1 23.9063 30.7357 24.5389 30.7249 25.2516L30.7359 38.472L47.6681 28.6962L47.6698 28.6991L48.4732 28.2352L60.0698 34.9279C61.1924 35.5743 62.187 36.41 63.0199 37.3892L65.7408 34.5294C67.0885 30.4264 66.6124 25.9443 64.4372 22.2166ZM61.0537 24.1701L61.0265 24.1628C62.3515 26.4577 62.8331 29.1207 62.3865 31.7321C62.3104 31.68 62.1397 31.5905 62.028 31.5167L50.0567 24.5873C49.4513 24.2304 48.7041 24.2395 48.0878 24.5953L34.0558 32.6967L34.0515 26.7442L45.6504 20.0476C51.0363 16.9342 57.9296 18.7788 61.0537 24.1701Z" fill="white"/>
    <path d="M67.6193 52.2716C70.911 46.5701 70.1697 39.3886 65.7753 34.4979L62.4252 31.7152L50.1036 24.6014C49.4874 24.2456 48.7574 24.2465 48.1347 24.5934L36.691 31.2131L53.6232 40.989L53.6216 40.9918L54.425 41.4557L54.4272 54.845C54.4288 56.1403 54.2023 57.4196 53.7708 58.6306L57.6079 59.557C61.835 58.6726 65.4786 56.0193 67.6193 52.2716ZM64.2358 50.3182L64.2285 50.2909C62.9035 52.5859 60.8381 54.3345 58.3533 55.2534C58.3603 55.1615 58.3525 54.9688 58.3605 54.8353L58.3759 41.0031C58.3824 40.3004 58.0008 39.6578 57.3846 39.302L43.3526 31.2006L48.5054 28.2207L60.1043 34.9173C65.4935 38.0249 67.3427 44.9169 64.2358 50.3182Z" fill="white"/>
    <path d="M43.182 70.0548C49.7655 70.0548 55.6143 65.822 57.6525 59.571L58.3873 55.2784V41.0506C58.3873 40.3391 58.0216 39.7073 57.4098 39.3416L45.9551 32.7409L45.9551 52.2925H45.9517V53.2202L34.3574 59.9168C33.2364 60.5658 32.0153 61.0093 30.7507 61.2411L31.867 65.0273C34.7464 68.246 38.8661 70.0747 43.182 70.0548ZM43.182 66.1479L43.202 66.1279C40.5519 66.1279 38.0049 65.2135 35.9667 63.5211C36.0498 63.4812 36.2128 63.3781 36.3325 63.3183L48.3192 56.4155C48.931 56.0697 49.2967 55.418 49.2967 54.7065V38.5036L54.4538 41.4762V54.8694C54.4571 61.0905 49.4131 66.1379 43.182 66.1479Z" fill="white"/>
    <path d="M15.5628 57.7831C18.8545 63.4846 25.4446 66.4334 31.8772 65.0731L35.9622 63.5631L48.2838 56.4493C48.9 56.0935 49.2642 55.4609 49.2751 54.7481L49.2641 41.5277L32.3319 51.3036L32.3302 51.3007L31.5268 51.7645L19.9302 45.0718C18.8076 44.4255 17.813 43.5897 16.98 42.6105L14.2591 45.4703C12.9115 49.5733 13.3876 54.0555 15.5628 57.7831ZM18.9462 55.8297L18.9735 55.837C17.6485 53.542 17.1669 50.8791 17.6134 48.2677C17.6896 48.3197 17.8603 48.4093 17.972 48.483L29.9433 55.4124C30.5486 55.7694 31.2959 55.7603 31.9121 55.4045L45.9442 47.3031L45.9484 53.2555L34.3496 59.9521C28.9636 63.0656 22.0704 61.221 18.9462 55.8297Z" fill="white"/>
    <path d="M12.3807 27.7282C9.08892 33.4297 9.83022 40.6113 14.2247 45.502L17.5747 48.2846L29.8964 55.3985C30.5126 55.7543 31.2426 55.7534 31.8652 55.4065L43.3089 48.7867L26.3767 39.0109L26.3784 39.008L25.575 38.5442L25.5727 25.1549C25.5712 23.8596 25.7977 22.5803 26.2292 21.3693L22.3921 20.4429C18.1649 21.3272 14.5213 23.9806 12.3807 27.7282ZM15.7642 29.6817L15.7715 29.709C17.0965 27.414 19.1618 25.6654 21.6466 24.7465C21.6396 24.8384 21.6474 25.031 21.6394 25.1646L21.624 38.9968C21.6176 39.6995 21.9991 40.3421 22.6153 40.6979L36.6474 48.7993L31.4945 51.7792L19.8957 45.0826C14.5064 41.975 12.6573 35.0829 15.7642 29.6817Z" fill="white"/>
  </g>
  <defs>
    <clipPath id="clip0_3401_5458">
      <rect width="80" height="80" fill="white"/>
    </clipPath>
  </defs>
</svg>